<svg xmlns="http://www.w3.org/2000/svg" xmlns:xlink="http://www.w3.org/1999/xlink" xmlns:xodm="http://www.corel.com/coreldraw/odm/2003" xml:space="preserve" width="998px" height="305px" style="shape-rendering:geometricPrecision; text-rendering:geometricPrecision; image-rendering:optimizeQuality; fill-rule:evenodd; clip-rule:evenodd" viewBox="0 0 333.49 101.82"> <defs> <style type="text/css"> .fil0 {fill:#373435;fill-rule:nonzero} </style> </defs> <g id="Layer_x0020_1"> <metadata id="CorelCorpID_0Corel-Layer"></metadata> <path class="fil0" d="M131.29 15.17c11.21,-6.84 23,-13.91 36.39,-15.08 6.54,-0.31 15,-0.13 18.58,6.43 3.21,6.02 -1.21,12.53 -5.1,17.06 -4.44,4.61 -9.97,7.94 -15.86,10.32 0.96,2.02 2.77,3.97 2.45,6.35 -2.62,7.4 -8.39,14.33 -7.19,22.59 9.03,1.02 16.45,-5.33 22.73,-10.93 3.32,-3.22 6.5,-6.9 11.1,-8.29 3.55,-1.02 7.24,-1.34 10.91,-1.71 0.01,3.69 0.65,7.69 -1.51,10.97 -1.73,4.1 -5.85,6.3 -8.22,9.92 11.4,-3.79 20.95,-11.26 30.56,-18.19 2.03,-1.8 4.08,-3.76 6.82,-4.39 -2.98,4.46 -2.91,9.84 -3.39,14.96 -1.77,7.41 -9.14,12.98 -16.63,13.31l0.85 -1.17c8,-2.67 10.69,-11.36 11.18,-18.98 -4.53,2.02 -8.22,5.41 -12.39,8.04 -0.16,2.02 -0.28,4.04 -0.41,6.07 -1.52,1.09 -3.03,2.16 -4.55,3.23 0.41,0.43 1.24,1.3 1.65,1.71l0.94 1.06c-1.16,-0.03 -3.48,-0.1 -4.64,-0.12 -0.46,-2.3 -0.92,-4.6 -1.31,-6.91 -3.72,2.06 -7.97,2.49 -11.95,3.63 -4.87,2.79 -10.72,7.11 -16.24,3.08 -0.14,-2.88 0.09,-5.78 1.3,-8.44 -6.19,3.46 -12.3,7.59 -19.44,8.68 -2.04,0.31 -3.89,-0.63 -5.69,-1.39 0.12,-2.73 0.06,-5.48 0.42,-8.19 3.48,-7.4 9.36,-14.11 9.97,-22.55 -3.19,-0.01 -6.36,0.11 -9.55,0.04 2.52,-4.55 8.26,-1.46 12.02,-3.97 9.08,-3.19 17.89,-13.55 13.49,-23.37 -1.12,-4.65 -6.53,-6.19 -10.75,-6.15 -7.17,-0.69 -13.8,2.53 -20.46,4.62 -5.62,5.1 -12.47,9 -16.65,15.53 -1.81,3.11 -4.42,6.48 -3.16,10.28 11.11,-0.04 16.43,-11.76 22.18,-19.46 -2.64,8.48 -8.66,15.73 -16.11,20.46 -3.82,2.09 -9.25,3.58 -12.7,0.07 -2.89,-1.49 -0.25,-4.75 0.29,-6.91 1.42,-5.43 6.25,-8.55 10.07,-12.21zm61.22 31.88l0 0c-4.96,4.73 -11.09,10.76 -9.26,18.31 1.63,0.1 3.24,0.08 4.87,-0.04 6.01,-4.3 11.3,-11.42 10.14,-19.16 -1.88,0.16 -4.34,-0.84 -5.75,0.89z"></path> <path class="fil0" d="M66.31 44.8c17.7,-11.25 32.42,-26.33 48.61,-39.49 -10.01,16.88 -23.87,30.96 -35.37,46.75 3.55,-0.88 7.06,-1.98 10.63,-2.85l-0.63 0.89c-3.89,2.53 -8.64,3.12 -12.65,5.32 -4.33,3.67 -6.9,8.9 -10.89,12.91 -2.71,1.19 -5.83,1.39 -8.69,0.55 3.6,-3.56 9.89,-6.44 8.87,-12.45 -3.7,-0.37 -7.38,-0.97 -11.1,-1.29 -4.74,2.2 -8.59,5.93 -13.07,8.62 -12.06,8.24 -25.59,14.04 -37.56,22.39 -1.49,-0.51 -2.98,-1.06 -4.46,-1.6 0.06,-1.14 0.08,-2.3 0.06,-3.44 10.12,-2.84 19.6,-7.44 28.96,-12.16 8,-4.61 15.53,-10.01 23.58,-14.55 -4.08,-2.94 -8.59,-5.86 -10.71,-10.64 -2.38,-4.57 -0.15,-11.8 5.43,-12.53 5.03,-1.83 9.78,1.07 13.46,4.26 1.19,1.45 2.31,2.96 3.35,4.54 0.77,1.57 1.45,3.19 2.18,4.77zm26.53 -17.95l0 0c-8.51,6.4 -16.44,13.55 -25.31,19.47 0,2.7 0.01,5.42 0.06,8.14 0.92,-0.03 2.75,-0.07 3.69,-0.1 3.72,-3.85 6.7,-8.34 10.5,-12.1 6.63,-6.44 11.91,-14.07 17.94,-21.03 -2.86,1.1 -4.54,3.8 -6.88,5.62zm-41.6 7.04l0 0c-4.75,2.04 -6.38,9.29 -2.69,13.06 1.89,2.27 4.07,6.28 7.57,5.14 2.82,-2.49 7.23,-3.94 8.76,-7.48 -2.57,-5 -7.2,-12.06 -13.64,-10.72zm6.79 19.24l0 0c2.45,1.83 5.6,1.2 8.43,1.4 -0.17,-2.41 -0.28,-4.82 -0.34,-7.23 -2.78,1.82 -5.61,3.6 -8.09,5.83z"></path> <path class="fil0" d="M208.83 71.42c2.29,-0.34 4.56,-0.11 6.66,0.85 -0.13,1.88 -0.29,3.74 -0.49,5.61 -2.57,2.1 -4.76,5.63 -8.48,5.5 1.24,-1.21 2.54,-2.37 3.87,-3.49 1.88,-1.35 3.25,-3.21 3.83,-5.46 -1.77,0.22 -3.54,0.46 -5.29,0.64 -0.03,-0.92 -0.07,-2.75 -0.1,-3.65z"></path> <path class="fil0" d="M108.52 50.97c22.13,-7.38 40.55,-22.26 58.1,-37.14 -7.81,12.93 -17.63,24.5 -25.79,37.21 -3.69,5.18 -7.52,10.32 -10.61,15.89 -2.41,4.81 -8.9,2.27 -13.18,2.69 3.22,-2.48 6.85,-4.57 9.21,-7.99 9.23,-12.22 18.6,-24.36 29.28,-35.32 0.13,-0.15 0.41,-0.43 0.53,-0.57 -0.12,0.14 -0.4,0.42 -0.53,0.57 -3.56,0.74 -5.86,3.75 -8.63,5.82 -9.93,7.8 -21.03,14.08 -32.76,18.75 -1.78,1.01 -3.78,0.72 -5.62,0.09z"></path> <path class="fil0" d="M252.06 45.32c3.09,-0.6 6.14,-1.35 9.22,-1.98 -2.76,3.39 -5.54,6.74 -7.77,10.5 -2.14,3.79 -6.27,7.05 -5.13,11.87 7.78,-2.01 13.12,-8.4 18.82,-13.61 2.23,-1.6 1.96,-5.33 4.82,-6.17 2.38,-1.26 5.1,-1.39 7.64,-0.55 -3.21,2.43 -5.04,6.11 -7.17,9.42 -2.21,3.81 -5.65,6.91 -6.84,11.26 -1.39,3.1 0.95,6.4 3.46,8.1 5.64,3.64 11.79,6.92 18.59,7.55 7.38,-0.88 14.82,-0.97 22.19,-1.99 7.93,-0.21 16.64,-1.62 23.6,3.17l0 0.35c-1.57,1.84 -2.95,3.85 -4.68,5.53 -4.89,2.87 -10.76,2.03 -16.15,1.83 -9.18,-1.03 -18.07,-3.75 -26.83,-6.58 -4.19,-0.92 -8.51,0.21 -12.71,0.53 -25.97,2.29 -51.98,3.93 -77.91,6.67 -8.26,1.2 -16.68,0.25 -24.9,1.88 -7.76,0.13 -15.42,1.09 -23.12,1.84 -12.57,0.89 -25.09,2.17 -37.67,3.04 -15.7,2.1 -31.54,2.24 -47.28,3.84 0.47,-0.5 1.45,-1.49 1.93,-1.99 -1.32,-2.51 -2.53,-5.07 -3.8,-7.6 14.03,-0.52 28.01,-1.62 42.03,-1.93 9.71,-1.74 19.63,-0.3 29.35,-1.82 10.58,-0.89 21.22,-0.38 31.82,-1.02 16.28,-0.99 32.58,-2.04 48.9,-2.42 4.02,-0.15 8.06,-0.25 12.1,-0.46 11.04,-1.74 22.28,-0.15 33.37,-1.59 7.12,-0.9 14.29,-0.53 21.43,-0.92 -6.13,-3.95 -13.65,-6.58 -17.7,-13.02 -2.03,-3.79 1.11,-7.55 2.28,-11.07 -4.95,3.68 -9.3,8.17 -14.73,11.2 -2.2,0.89 -5.18,2.42 -6.95,-0.05 -3.34,-5.58 3.45,-10.01 5.21,-14.91 -8.62,4.64 -15.92,12.03 -25.7,14.39 1.52,-2.51 4.41,-3.43 6.83,-4.75 7.06,-3.28 12.99,-8.35 19.44,-12.61 2.26,-1.24 3.26,-3.6 4.01,-5.93zm41.49 37.59l0 0c-0.14,0.44 -0.4,1.35 -0.54,1.79 6.65,1.05 12.98,4.2 19.88,3.22 -0.37,2.47 5.37,2.48 5,-0.01 1.66,0 6.19,0.4 4.49,-2.58 -1.98,-2.63 -5.73,-1.67 -8.57,-1.67 -0.62,-2.14 -1.96,-2.48 -3.98,-1 -5.39,-0.57 -10.86,0.21 -16.28,0.25zm-207.43 10.72l0 0c-1.31,0.29 -3.17,3.12 -1.07,3.55 2.22,0.21 4.74,-4.79 1.07,-3.55z"></path> <path class="fil0" d="M84.02 68.52c-0.36,-4.23 2.67,-8.61 7.34,-7.44l-0.2 1.44c0.41,4.4 -3.03,6.75 -7.14,6z"></path> <path class="fil0" d="M155.53 26.31c0.13,-0.15 0.41,-0.43 0.53,-0.57 -0.12,0.14 -0.4,0.42 -0.53,0.57z"></path> <path class="fil0" d="M205.73 72.8c0.75,0.76 0.75,0.76 0,0z"></path> <path class="fil0" d="M309.83 82.66c2.02,-1.48 3.36,-1.14 3.98,1 -1.5,0.38 -2.84,0.04 -3.98,-1z"></path> <path class="fil0" d="M312.89 87.92c1.66,-0.14 3.33,-0.14 5,-0.01 0.37,2.49 -5.37,2.48 -5,0.01z"></path> <path class="fil0" d="M86.12 93.63c3.67,-1.24 1.15,3.76 -1.07,3.55 -2.1,-0.43 -0.24,-3.26 1.07,-3.55z"></path> </g></svg>