<svg xmlns="http://www.w3.org/2000/svg" xmlns:xlink="http://www.w3.org/1999/xlink" xmlns:xodm="http://www.corel.com/coreldraw/odm/2003" xml:space="preserve" width="717px" height="311px" style="shape-rendering:geometricPrecision; text-rendering:geometricPrecision; image-rendering:optimizeQuality; fill-rule:evenodd; clip-rule:evenodd" viewBox="0 0 1741.44 756.13"> <defs> <style type="text/css"> .fil0 {fill:#373435} .fil1 {fill:#020303;fill-rule:nonzero} </style> </defs> <g id="Layer_x0020_1"> <metadata id="CorelCorpID_0Corel-Layer"></metadata> <path class="fil0" d="M0 482.36l0 30.03c95.5,31.46 128.31,6.44 214.15,-24.02l4.92 -28.97 -23.09 -10.85 -66.38 17.85 -49.81 -54.83 -79.79 70.79z"></path> <g id="_1832160237648"> <g> <g> <path class="fil1" d="M431.91 126.71c82.16,-100.68 219.99,-139.34 345.77,-123.15 45.54,9.51 87.12,45.64 89.25,94.41 45.74,-5.46 96.74,-13.86 138.23,11.84 49.78,23.18 72.25,87.33 54.54,137.93 -14.37,49.48 -63.45,80.04 -112.02,88.34 0.51,14.16 4.86,29.14 -0.3,43 -20.85,32.69 -61.83,53.33 -65.17,95.63 41.69,4.75 71.95,-27.02 103.92,-47.97 52.02,-39.56 95.33,-95.92 159.99,-115.25 -34.1,46.24 -90.26,82.97 -87.63,147.74 40.27,1.72 66.28,-30.77 89.05,-59 1.62,-21.35 -1.52,-42.8 -1.52,-64.25 16.19,-6.48 32.58,-12.65 49.18,-18.11 -0.31,20.94 -0.91,41.89 -1.62,62.83 55.75,-11.83 97.95,-49.98 144.7,-79.33 2.73,2.83 8.1,8.4 10.83,11.23 -14.17,32.38 -27.02,65.37 -32.08,100.58 59.4,-19.63 109.59,-66.98 173.54,-69.61 -17.3,35.71 -44.72,66.38 -54.13,105.74 57.57,3.85 85.1,-54.14 121.53,-87.53 14.17,-17.5 38.15,-10.52 57.48,-10.62 -21.46,38.65 -72.36,64.96 -68.01,114.14 59.81,-6.38 104.94,-47.56 156.75,-72.96 -8.2,44.62 -45.84,74.98 -64.36,115.16 28.44,-7.19 60.52,-24.8 89.15,-10.73 22.67,11.03 9.51,40.07 -1.21,55.25 -37.14,56.87 -112.43,59.91 -173.14,70.13 -13.06,29.24 -25.4,69.62 -65.57,64.05 7.59,-23.17 20.13,-44.32 30.96,-66.08 -123.86,19.23 -250.15,8.5 -374.41,24.49 -120.52,17.71 -244.88,24.39 -358.72,71.24 -29.96,13.25 -60.42,25.1 -89.36,40.28 -29.64,-47.67 -80.85,-74.08 -134.88,-83.59 -52.73,-17.3 -111.82,1.42 -161.3,-26.71 113.13,-2.94 225.86,-16.8 338.58,-27.53 67.5,-4.35 135.1,-5.46 202.59,-9 80.25,-9.52 161,-8.51 241.65,-8.71 -1.32,-9 -2.63,-18.01 -3.85,-27.02 12.85,-5.05 25.5,-10.52 38.25,-15.88 -9.41,-12.04 -26.71,-22.06 -24.28,-39.67 4.75,-4.25 14.27,-12.95 19.02,-17.31 13.06,8.71 26.1,17.31 39.26,25.91 -11.94,31.57 -42.5,47.76 -65.16,70.43 116.06,5.46 232.53,-0.2 348.6,-3.54 37.14,-43.72 71.85,-91.07 98.66,-141.98 -42.7,17.71 -86.21,38.36 -133.88,33.3 -1.72,-12.65 -3.33,-25.3 -4.85,-38.05 -36.03,21.15 -74.48,45.94 -118.2,40.98 -2.42,-32.48 10.53,-61.73 24.49,-90.06 -30.96,12.25 -63.14,22.97 -91.37,41.08 -23.18,21.16 -42.4,51.01 -75.9,56.47 -21.45,7.69 -53.53,3.95 -60.51,-21.65 -9.61,-27.12 15.18,-47.77 22.47,-71.24 -4.56,-0.1 -13.56,-0.41 -18.12,-0.51 -33.39,25.6 -58.59,61.32 -96.03,81.97 -24.38,16.59 -55.45,11.03 -83.18,10.52 -0.81,-17.61 -1.82,-35.22 -3.13,-52.82 -27.02,14.77 -50.5,35.72 -78.73,48.37 -32.28,11.33 -67.19,8.09 -100.69,8.3 1.62,-26.42 -2.12,-58.39 21.05,-77.01 26.92,-23.88 54.75,-47.05 76.6,-75.99 -21.35,0.1 -42.7,0.5 -63.95,0.2 -0.3,-8.6 -0.71,-25.91 -0.91,-34.61 27.83,-4.76 56.06,-3.14 82.88,6.17 44.42,-29.64 83.28,-71.54 96.63,-124.26 -1.21,-19.02 0.61,-42.81 -15.48,-56.36 -48.07,21.65 -81.36,63.95 -116.27,101.59 -61.12,66.59 -88.85,156.95 -155.33,219.28 -98.66,90.47 -229.7,157.36 -366.62,147.44 -74.27,0.1 -149.96,-37.24 -186.19,-103.52 -29.75,1.72 -57.68,15.08 -86.62,21.76l0 -58.49c24.69,-1.42 49.28,-2.94 73.87,-4.56 9.41,-36.22 20.34,-77.1 54.54,-97.95 22.87,-14.47 51.01,-8.19 74.28,1.62 -38.05,16.09 -77.21,37.54 -92.09,78.83 52.32,-31.37 99.17,-70.12 146.33,-108.48 -22.16,-76.7 11.74,-158.16 72.15,-207.14zm166.76 -85.5l0 0c-60.41,30.66 -123.05,62.84 -166.86,116.06 -36.73,44.02 -69.52,99.07 -57.18,158.77 101.9,-90.26 202.28,-187.3 329.89,-240.73 27.01,-9.01 47.56,-33.3 76.9,-35.01 -9.21,23.57 -34.4,33.59 -50.59,51.4 -27.73,29.75 -58.19,56.67 -86.52,85.71 -45.84,45.64 -83.59,98.76 -129.02,144.8 -12.45,12.96 -20.75,28.95 -28.94,44.84 24.18,1.92 48.37,0 72.55,-0.71 -13.15,27.21 -53.63,15.37 -78.93,21.95 -10.42,22.16 -27.82,42.5 -26.81,68.3 20.24,-1.11 40.27,-5.66 55.15,-20.13 10.22,-11.64 30.05,-13.56 22.86,7.79 -33.59,30.86 -72.14,56.97 -114.85,73.47 -16.08,-1.42 -25.4,-17.71 -38.15,-25.91 -2.42,-43.31 23.89,-78.12 39.37,-116.27 -15.28,-4.75 -30.26,-23.07 -46.65,-17.5 -51.3,41.28 -98.76,89.75 -156.65,122.44 8.71,32.08 31.07,59.6 57.18,79.53 82.47,40.78 180.32,26.62 262.99,-5.97 80.25,-39.66 149.87,-100.58 202.99,-172.43 55.86,-68.5 114.45,-134.68 175.78,-198.33 25.29,-23.48 57.88,-37.44 82.06,-62.34 -42.9,-7.28 -87.73,-18.01 -129.12,1.73 -14.87,53.32 -48.37,99.77 -86.92,138.63 -38.46,37.54 -84.6,78.62 -142.58,71.84 -7.49,-26.2 0.2,-54.44 17.91,-74.78 44.52,-53.42 94.92,-105.54 159.98,-133.37 9.72,-6.17 29.05,-8.9 25.81,-24.79 8.7,-36.53 -25.5,-60.41 -52.42,-76.81 -62.33,-19.42 -129.73,-4.75 -189.23,17.82zm143.19 163.02l0 0c-34.21,31.57 -76.2,63.64 -85.71,111.81 50.9,-9.51 96.13,-40.07 127.4,-80.95 19.53,-27.12 44.83,-53.23 48.27,-88.14 -34.51,10.83 -61.63,35.92 -89.96,57.28zm-264.72 48.36l0 0c-26.21,24.6 -55.65,46.15 -79.13,73.47 -3.44,19.02 16.39,33.29 32.99,22.67 31.17,-26.62 51.6,-63.15 81.56,-90.87 17.81,-18.32 42.29,-32.89 47.76,-59.81 -34.91,4.46 -57.28,34.1 -83.18,54.54zm724.63 151.89l0 0c6.48,3.14 19.23,9.62 25.71,12.75 10.92,21.96 -12.04,35.01 -27.63,44.32 -8.7,18.72 18.93,22.37 31.67,19.23 37.95,-26.11 49.28,-74.58 55.15,-117.58 -28.33,12.14 -64.56,17.6 -84.9,41.28zm462.15 112.93l0 0c-29.45,16.39 -61.73,37.85 -73.37,70.94 30.97,6.58 62.84,-9.01 90.77,-21.56 16.7,-11.53 43.92,-29.34 32.99,-53.12 -16.09,-8.1 -34.71,-2.03 -50.39,3.74z"></path> </g> <path class="fil1" d="M515.89 486.75c9.62,-26.51 39.88,-39.87 66.99,-35.82 4.25,25.7 -10.12,46.85 -32.88,56.97 -13.87,13.86 -40.38,-2.73 -34.11,-21.15z"></path> </g> </g> </g></svg>